<?xml version="1.0" encoding="UTF-8" standalone="no"?>
<svg
   xmlns:dc="http://purl.org/dc/elements/1.1/"
   xmlns:cc="http://creativecommons.org/ns#"
   xmlns:rdf="http://www.w3.org/1999/02/22-rdf-syntax-ns#"
   xmlns:svg="http://www.w3.org/2000/svg"
   xmlns="http://www.w3.org/2000/svg"
   xmlns:sodipodi="http://sodipodi.sourceforge.net/DTD/sodipodi-0.dtd"
   xmlns:inkscape="http://www.inkscape.org/namespaces/inkscape"
   width="64"
   height="64"
   viewBox="0 0 16.933333 16.933334"
   version="1.1"
   id="svg8"
   inkscape:version="1.0.2-2 (e86c870879, 2021-01-15)"
   sodipodi:docname="favicon.svg">
  <defs
     id="defs2" />
  <sodipodi:namedview
     id="base"
     pagecolor="#ffffff"
     bordercolor="#666666"
     borderopacity="1.0"
     inkscape:pageopacity="0.0"
     inkscape:pageshadow="2"
     inkscape:zoom="5.6"
     inkscape:cx="28.09904"
     inkscape:cy="3.0892015"
     inkscape:document-units="mm"
     inkscape:current-layer="layer1"
     inkscape:document-rotation="0"
     showgrid="false"
     units="px"
     inkscape:snap-global="true"
     inkscape:window-width="1920"
     inkscape:window-height="1017"
     inkscape:window-x="-8"
     inkscape:window-y="554"
     inkscape:window-maximized="1" />
  <metadata
     id="metadata5">
    <rdf:RDF>
      <cc:Work
         rdf:about="">
        <dc:format>image/svg+xml</dc:format>
        <dc:type
           rdf:resource="http://purl.org/dc/dcmitype/StillImage" />
        <dc:title></dc:title>
      </cc:Work>
    </rdf:RDF>
  </metadata>
  <g
     inkscape:groupmode="layer"
     id="layer2"
     inkscape:label="Слой 2"
     style="display:inline">
    <circle
       style="fill:#800080;stroke-width:0.228851"
       id="path77"
       cx="8.4666662"
       cy="8.4666662"
       r="8.4666662" />
  </g>
  <g
     inkscape:label="Слой 1"
     inkscape:groupmode="layer"
     id="layer1"
     style="display:inline">
    <g
       id="g28"
       transform="scale(0.70555556)">
      <rect
         fill="none"
         height="24"
         width="24"
         id="rect26"
         x="0"
         y="0" />
    </g>
    <g
       id="g32"
       transform="matrix(0.61736111,0,0,0.61736111,1.0583333,0.52916667)"
       style="fill:#ffffff">
      <path
         d="M 12,3 C 7.03,3 3,7.03 3,12 v 7 c 0,1.1 0.9,2 2,2 H 9 V 13 H 5 v -1 c 0,-3.87 3.13,-7 7,-7 3.87,0 7,3.13 7,7 v 1 h -4 v 8 h 4 c 1.1,0 2,-0.9 2,-2 V 12 C 21,7.03 16.97,3 12,3 Z"
         id="path30"
         style="fill:#ffffff" />
    </g>
  </g>
</svg>
